<svg width="200" height="50" viewBox="0 0 200 50" fill="none" xmlns="http://www.w3.org/2000/svg">
<path fill-rule="evenodd" clip-rule="evenodd" d="M190 2H10C5.58172 2 2 5.58172 2 10V40C2 44.4183 5.58172 48 10 48H56.2076V46.08C55.6809 46.0333 55.2176 45.8967 54.8176 45.67C54.4176 45.4367 54.1076 45.1233 53.8876 44.73C53.6676 44.33 53.5576 43.86 53.5576 43.32C53.5576 42.7733 53.6642 42.3033 53.8776 41.91C54.0909 41.51 54.3976 41.1967 54.7976 40.97C55.1976 40.7367 55.6776 40.6 56.2376 40.56V38.4H57.0676V40.56C57.6009 40.6067 58.0642 40.7467 58.4576 40.98C58.8576 41.2133 59.1676 41.5267 59.3876 41.92C59.6076 42.3133 59.7176 42.78 59.7176 43.32C59.7176 43.86 59.6109 44.33 59.3976 44.73C59.1842 45.1233 58.8809 45.4367 58.4876 45.67C58.0942 45.8967 57.6209 46.0333 57.0676 46.08V48H190C194.418 48 198 44.4183 198 40V10C198 5.58172 194.418 2 190 2ZM10 0C4.47715 0 0 4.47715 0 10V40C0 45.5228 4.47716 50 10 50H190C195.523 50 200 45.5228 200 40V10C200 4.47715 195.523 0 190 0H10ZM76.5867 31.35C75.7311 31.35 74.9311 31.2722 74.1867 31.1167C73.4533 30.9722 72.8367 30.7778 72.3367 30.5333C71.8367 30.2889 71.4255 30.0556 71.1033 29.8333C70.7922 29.6111 70.5311 29.3889 70.32 29.1667L70.7367 25.1167C71.1922 25.7278 71.8033 26.2611 72.57 26.7167C73.3367 27.1611 74.1644 27.3833 75.0533 27.3833C75.9422 27.3833 76.5811 27.2889 76.97 27.1C77.37 26.9111 77.57 26.5667 77.57 26.0667C77.57 25.5333 77.3422 25.0778 76.8867 24.7C76.4422 24.3222 75.67 23.8667 74.57 23.3333C74.17 23.1333 73.8311 22.9556 73.5533 22.8C73.2755 22.6333 72.9033 22.3667 72.4367 22C71.9811 21.6222 71.6089 21.2333 71.32 20.8333C71.0311 20.4222 70.7755 19.9 70.5533 19.2667C70.3311 18.6222 70.22 17.9333 70.22 17.2C70.22 13.2333 72.4589 11.25 76.9367 11.25C77.6478 11.25 78.3144 11.3278 78.9367 11.4833C79.57 11.6278 80.0644 11.7889 80.42 11.9667C80.7755 12.1444 81.0978 12.3556 81.3867 12.6C81.6867 12.8333 81.8755 13 81.9533 13.1C82.0311 13.1889 82.0867 13.2611 82.12 13.3167L81.2867 16.5333C80.8533 16.0222 80.3089 15.6444 79.6533 15.4C79.0089 15.1444 78.3922 15.0167 77.8033 15.0167C76.3811 15.0167 75.67 15.4611 75.67 16.35C75.67 16.5833 75.7144 16.7944 75.8033 16.9833C75.8922 17.1722 76.0367 17.3444 76.2367 17.5C76.4367 17.6556 76.62 17.7889 76.7867 17.9C76.9644 18.0111 77.2033 18.15 77.5033 18.3167C77.8144 18.4722 78.0478 18.6 78.2033 18.7C79.8255 19.3889 81.0144 20.2056 81.77 21.15C82.5367 22.0944 82.92 23.2444 82.92 24.6C82.92 26.8 82.3755 28.4778 81.2867 29.6333C80.2089 30.7778 78.6422 31.35 76.5867 31.35ZM90.036 31H84.636V12.15L83.636 11.55V10L88.986 9.16667H90.0693V18.9833L90.2693 18.7333C90.4027 18.5556 90.5971 18.3444 90.8527 18.1C91.1193 17.8556 91.4138 17.6167 91.736 17.3833C92.0582 17.1389 92.4416 16.9333 92.886 16.7667C93.3416 16.5889 93.786 16.5 94.2193 16.5C95.7416 16.5 96.8138 16.9167 97.436 17.75C98.0693 18.5833 98.386 19.9778 98.386 21.9333V22.2333C98.3749 22.3667 98.3693 22.4722 98.3693 22.55V31H92.8693V22.0667C92.9027 21.0222 92.4582 20.5 91.536 20.5C91.4471 20.5 91.3582 20.5056 91.2693 20.5167C91.1916 20.5278 91.1082 20.5556 91.0193 20.6C90.9305 20.6444 90.8582 20.6778 90.8027 20.7C90.7582 20.7222 90.686 20.7667 90.586 20.8333C90.4971 20.9 90.436 20.9444 90.4027 20.9667C90.3804 20.9889 90.3138 21.0444 90.2027 21.1333C90.1027 21.2222 90.0471 21.2722 90.036 21.2833V31ZM105.779 31H100.262V11.4667H102.462C103.051 11.4667 103.94 11.4444 105.129 11.4C106.318 11.3444 107.296 11.3167 108.062 11.3167C110.218 11.3167 111.851 11.8889 112.962 13.0333C114.073 14.1778 114.629 15.8944 114.629 18.1833C114.629 19.5611 114.446 20.8167 114.079 21.95C113.723 23.0722 113.24 23.9944 112.629 24.7167C112.018 25.4389 111.323 25.9944 110.546 26.3833C109.768 26.7722 108.946 26.9667 108.079 26.9667H107.729H107.412C107.323 26.9556 107.212 26.95 107.079 26.95C106.957 26.9389 106.857 26.9333 106.779 26.9333C106.712 26.9222 106.612 26.9167 106.479 26.9167C106.357 26.9056 106.273 26.9 106.229 26.9C106.184 26.9 106.101 26.8944 105.979 26.8833C105.857 26.8722 105.79 26.8667 105.779 26.8667V31ZM109.162 17.45C109.162 16.6278 108.94 15.9611 108.496 15.45C108.051 14.9389 107.412 14.6833 106.579 14.6833H105.779V23.35H106.396C107.273 23.35 107.951 23.0556 108.429 22.4667C108.918 21.8778 109.162 21.0278 109.162 19.9167V17.45ZM121.237 31H115.837V12.15L114.837 11.55V10L120.187 9.16667H121.271V18.9833L121.471 18.7333C121.604 18.5556 121.798 18.3444 122.054 18.1C122.321 17.8556 122.615 17.6167 122.937 17.3833C123.259 17.1389 123.643 16.9333 124.087 16.7667C124.543 16.5889 124.987 16.5 125.421 16.5C126.943 16.5 128.015 16.9167 128.637 17.75C129.271 18.5833 129.587 19.9778 129.587 21.9333V22.2333C129.576 22.3667 129.571 22.4722 129.571 22.55V31H124.071V22.0667C124.104 21.0222 123.659 20.5 122.737 20.5C122.648 20.5 122.559 20.5056 122.471 20.5167C122.393 20.5278 122.309 20.5556 122.221 20.6C122.132 20.6444 122.059 20.6778 122.004 20.7C121.959 20.7222 121.887 20.7667 121.787 20.8333C121.698 20.9 121.637 20.9444 121.604 20.9667C121.582 20.9889 121.515 21.0444 121.404 21.1333C121.304 21.2222 121.248 21.2722 121.237 21.2833V31ZM21.9519 45.2V38.86H18.6519C18.6252 39.3867 18.5585 39.9333 18.4519 40.5C18.3452 41.0667 18.2085 41.6333 18.0419 42.2C17.8752 42.76 17.6819 43.2967 17.4619 43.81C17.2485 44.3233 17.0219 44.7867 16.7819 45.2H16.2319V47.88H17.0919V46H22.0019V47.88H22.8619V45.2H21.9519ZM19.2419 40.98C19.3485 40.4933 19.4152 40.0567 19.4419 39.67H21.0619V45.2H17.7319C17.9452 44.84 18.1452 44.4233 18.3319 43.95C18.5252 43.4767 18.6985 42.9867 18.8519 42.48C19.0119 41.9667 19.1419 41.4667 19.2419 40.98ZM27.1859 40.84C26.8593 40.64 26.4659 40.54 26.0059 40.54C25.5326 40.54 25.1159 40.6533 24.7559 40.88C24.4026 41.1067 24.1259 41.43 23.9259 41.85C23.7326 42.27 23.6359 42.7733 23.6359 43.36C23.6359 43.9533 23.7426 44.4567 23.9559 44.87C24.1759 45.2767 24.4793 45.5833 24.8659 45.79C25.2593 45.9967 25.7093 46.1 26.2159 46.1C26.5826 46.1 26.8993 46.07 27.1659 46.01C27.4326 45.9567 27.7026 45.87 27.9759 45.75V44.98C27.6959 45.1 27.4226 45.1933 27.1559 45.26C26.8959 45.32 26.5959 45.35 26.2559 45.35C25.7226 45.35 25.3059 45.1933 25.0059 44.88C24.7126 44.56 24.5593 44.0967 24.5459 43.49H28.2159V42.96C28.2159 42.4733 28.1259 42.05 27.9459 41.69C27.7726 41.3233 27.5193 41.04 27.1859 40.84ZM24.9959 41.67C25.2426 41.3967 25.5759 41.26 25.9959 41.26C26.2959 41.26 26.5393 41.3267 26.7259 41.46C26.9193 41.5867 27.0626 41.7633 27.1559 41.99C27.2493 42.2167 27.2959 42.4833 27.2959 42.79H24.5659C24.6126 42.31 24.7559 41.9367 24.9959 41.67ZM32.7705 46H33.6605V40.64H30.4305C30.3838 41.2867 30.3305 41.8667 30.2705 42.38C30.2105 42.8933 30.1405 43.34 30.0605 43.72C29.9805 44.0933 29.8905 44.4033 29.7905 44.65C29.6971 44.8967 29.5905 45.08 29.4705 45.2C29.3505 45.32 29.2171 45.38 29.0705 45.38C29.0238 45.38 28.9771 45.3767 28.9305 45.37C28.8838 45.3633 28.8405 45.3533 28.8005 45.34V46C28.8538 46.0267 28.9205 46.0433 29.0005 46.05C29.0871 46.0633 29.1738 46.07 29.2605 46.07C29.5471 46.07 29.7971 45.9833 30.0105 45.81C30.2238 45.6367 30.4071 45.3633 30.5605 44.99C30.7138 44.6167 30.8405 44.1333 30.9405 43.54C31.0405 42.94 31.1238 42.2167 31.1905 41.37H32.7705V46ZM36.1817 44.17C36.1884 44.0567 36.1917 43.97 36.1917 43.91V40.64H35.3617V46H36.4517L39.3017 41.52C39.2951 41.6067 39.2884 41.7367 39.2817 41.91C39.2751 42.0767 39.2684 42.2467 39.2617 42.42V42.84V46H40.0817V40.64H39.0017L36.1317 45.13C36.1384 45.0633 36.1451 44.9767 36.1517 44.87L36.1632 44.6711L36.1717 44.52C36.1784 44.3933 36.1817 44.2767 36.1817 44.17ZM42.6675 45.81C43.0408 46.0033 43.4642 46.1 43.9375 46.1C44.2442 46.1 44.5042 46.0733 44.7175 46.02C44.9375 45.9733 45.1375 45.9033 45.3175 45.81V45.03C45.1308 45.1167 44.9242 45.19 44.6975 45.25C44.4775 45.31 44.2208 45.34 43.9275 45.34C43.5875 45.34 43.3042 45.2633 43.0775 45.11C42.8508 44.9567 42.6808 44.73 42.5675 44.43C42.4542 44.13 42.3975 43.7667 42.3975 43.34C42.3975 42.8933 42.4542 42.52 42.5675 42.22C42.6808 41.92 42.8542 41.6933 43.0875 41.54C43.3208 41.3867 43.6175 41.31 43.9775 41.31C44.1642 41.31 44.3642 41.3367 44.5775 41.39C44.7908 41.4433 44.9775 41.5 45.1375 41.56L45.4075 40.83C45.2475 40.75 45.0408 40.6833 44.7875 40.63C44.5342 40.57 44.2708 40.54 43.9975 40.54C43.5175 40.54 43.0875 40.6367 42.7075 40.83C42.3342 41.0233 42.0375 41.3267 41.8175 41.74C41.5975 42.1533 41.4875 42.69 41.4875 43.35C41.4875 43.9833 41.5908 44.5033 41.7975 44.91C42.0108 45.3167 42.3008 45.6167 42.6675 45.81ZM50.2222 43.01C49.9155 42.8967 49.5289 42.84 49.0622 42.84H47.4722V40.64H46.5922V46H49.0222C49.5155 46 49.9189 45.9333 50.2322 45.8C50.5455 45.6667 50.7755 45.4767 50.9222 45.23C51.0755 44.9833 51.1522 44.6933 51.1522 44.36C51.1522 44.02 51.0722 43.74 50.9122 43.52C50.7589 43.2933 50.5289 43.1233 50.2222 43.01ZM49.9222 43.75C50.1555 43.8633 50.2722 44.0833 50.2722 44.41C50.2722 44.73 50.1489 44.9567 49.9022 45.09C49.6622 45.2233 49.3555 45.29 48.9822 45.29H47.4722V43.57H48.9622C49.3755 43.57 49.6955 43.63 49.9222 43.75ZM55.2376 41.6C55.4976 41.4333 55.8309 41.33 56.2376 41.29V45.36C55.8309 45.32 55.4976 45.2167 55.2376 45.05C54.9776 44.8767 54.7842 44.6467 54.6576 44.36C54.5376 44.0667 54.4776 43.72 54.4776 43.32C54.4776 42.9133 54.5376 42.5667 54.6576 42.28C54.7842 41.9933 54.9776 41.7667 55.2376 41.6ZM58.0476 45.04C57.7942 45.2067 57.4676 45.3133 57.0676 45.36V41.3C57.4609 41.34 57.7842 41.4433 58.0376 41.61C58.2976 41.7767 58.4909 42.0033 58.6176 42.29C58.7442 42.5767 58.8076 42.92 58.8076 43.32C58.8076 43.72 58.7442 44.0667 58.6176 44.36C58.4976 44.6467 58.3076 44.8733 58.0476 45.04ZM65.5937 44.5C65.7137 44.1533 65.7737 43.7567 65.7737 43.31C65.7737 42.7167 65.667 42.2167 65.4537 41.81C65.247 41.3967 64.957 41.0833 64.5837 40.87C64.217 40.65 63.7903 40.54 63.3037 40.54C62.7903 40.54 62.347 40.65 61.9737 40.87C61.6003 41.0833 61.3137 41.3967 61.1137 41.81C60.9137 42.2167 60.8137 42.7167 60.8137 43.31C60.8137 43.7567 60.8737 44.1533 60.9937 44.5C61.1203 44.84 61.2937 45.13 61.5137 45.37C61.7337 45.61 61.9937 45.7933 62.2937 45.92C62.5937 46.04 62.9203 46.1 63.2737 46.1C63.6537 46.1 63.997 46.04 64.3037 45.92C64.617 45.7933 64.8803 45.61 65.0937 45.37C65.3137 45.13 65.4803 44.84 65.5937 44.5ZM61.8837 44.41C61.777 44.0967 61.7237 43.73 61.7237 43.31C61.7237 42.6767 61.847 42.18 62.0937 41.82C62.3403 41.46 62.737 41.28 63.2837 41.28C63.6503 41.28 63.947 41.3633 64.1737 41.53C64.407 41.69 64.5803 41.92 64.6937 42.22C64.807 42.52 64.8637 42.8833 64.8637 43.31C64.8637 43.73 64.807 44.0967 64.6937 44.41C64.587 44.7167 64.417 44.9533 64.1837 45.12C63.9503 45.2867 63.6537 45.37 63.2937 45.37C62.9337 45.37 62.637 45.2867 62.4037 45.12C62.1703 44.9533 61.997 44.7167 61.8837 44.41ZM69.0207 41.38H70.7707V40.64H66.4207V41.38H68.1507V46H69.0207V41.38ZM76.2089 44.5C76.3289 44.1533 76.3889 43.7567 76.3889 43.31C76.3889 42.7167 76.2822 42.2167 76.0689 41.81C75.8622 41.3967 75.5722 41.0833 75.1989 40.87C74.8322 40.65 74.4056 40.54 73.9189 40.54C73.4056 40.54 72.9622 40.65 72.5889 40.87C72.2156 41.0833 71.9289 41.3967 71.7289 41.81C71.5289 42.2167 71.4289 42.7167 71.4289 43.31C71.4289 43.7567 71.4889 44.1533 71.6089 44.5C71.7356 44.84 71.9089 45.13 72.1289 45.37C72.3489 45.61 72.6089 45.7933 72.9089 45.92C73.2089 46.04 73.5356 46.1 73.8889 46.1C74.2689 46.1 74.6122 46.04 74.9189 45.92C75.2322 45.7933 75.4956 45.61 75.7089 45.37C75.9289 45.13 76.0956 44.84 76.2089 44.5ZM72.4989 44.41C72.3922 44.0967 72.3389 43.73 72.3389 43.31C72.3389 42.6767 72.4622 42.18 72.7089 41.82C72.9556 41.46 73.3522 41.28 73.8989 41.28C74.2656 41.28 74.5622 41.3633 74.7889 41.53C75.0222 41.69 75.1956 41.92 75.3089 42.22C75.4222 42.52 75.4789 42.8833 75.4789 43.31C75.4789 43.73 75.4222 44.0967 75.3089 44.41C75.2022 44.7167 75.0322 44.9533 74.7989 45.12C74.5656 45.2867 74.2689 45.37 73.9089 45.37C73.5489 45.37 73.2522 45.2867 73.0189 45.12C72.7856 44.9533 72.6122 44.7167 72.4989 44.41ZM78.5382 43.6167V44.4533H80.5315V43.6167H78.5382ZM83.8687 42.87V40.64H82.9887V46H83.8687V43.61H86.7787V46H87.6587V40.64H86.7787V42.87H83.8687ZM92.8359 40.98C92.5225 40.6933 92.0392 40.55 91.3859 40.55C91.0392 40.55 90.7059 40.5967 90.3859 40.69C90.0659 40.7767 89.7892 40.8833 89.5559 41.01L89.8259 41.67C90.0459 41.5633 90.2825 41.47 90.5359 41.39C90.7892 41.3033 91.0559 41.26 91.3359 41.26C91.6892 41.26 91.9625 41.3467 92.1559 41.52C92.3492 41.6933 92.4459 42.0033 92.4459 42.45V42.77L91.5359 42.8C90.6625 42.8267 90.0159 42.9867 89.5959 43.28C89.1759 43.5667 88.9659 43.9767 88.9659 44.51C88.9659 44.87 89.0392 45.17 89.1859 45.41C89.3325 45.6433 89.5325 45.8167 89.7859 45.93C90.0459 46.0433 90.3359 46.1 90.6559 46.1C90.9559 46.1 91.2092 46.07 91.4159 46.01C91.6292 45.95 91.8159 45.8567 91.9759 45.73C92.1425 45.5967 92.3025 45.4333 92.4559 45.24H92.4959L92.6659 46H93.3059V42.35C93.3059 41.7233 93.1492 41.2667 92.8359 40.98ZM90.2559 43.73C90.5159 43.5433 90.9792 43.4367 91.6459 43.41L92.4359 43.38V43.86C92.4359 44.38 92.2859 44.7667 91.9859 45.02C91.6859 45.2667 91.3092 45.39 90.8559 45.39C90.5692 45.39 90.3325 45.32 90.1459 45.18C89.9659 45.04 89.8759 44.82 89.8759 44.52C89.8759 44.18 90.0025 43.9167 90.2559 43.73ZM94.3813 40.64L96.2313 43.26L94.2913 46H95.2813L96.7613 43.86L98.2213 46H99.2213L97.2713 43.26L99.1213 40.64H98.1313L96.7613 42.66L95.3813 40.64H94.3813ZM104.539 44.5C104.659 44.1533 104.719 43.7567 104.719 43.31C104.719 42.7167 104.612 42.2167 104.399 41.81C104.192 41.3967 103.902 41.0833 103.529 40.87C103.162 40.65 102.736 40.54 102.249 40.54C101.736 40.54 101.292 40.65 100.919 40.87C100.546 41.0833 100.259 41.3967 100.059 41.81C99.859 42.2167 99.759 42.7167 99.759 43.31C99.759 43.7567 99.819 44.1533 99.939 44.5C100.066 44.84 100.239 45.13 100.459 45.37C100.679 45.61 100.939 45.7933 101.239 45.92C101.539 46.04 101.866 46.1 102.219 46.1C102.599 46.1 102.942 46.04 103.249 45.92C103.562 45.7933 103.826 45.61 104.039 45.37C104.259 45.13 104.426 44.84 104.539 44.5ZM100.829 44.41C100.722 44.0967 100.669 43.73 100.669 43.31C100.669 42.6767 100.792 42.18 101.039 41.82C101.286 41.46 101.682 41.28 102.229 41.28C102.596 41.28 102.892 41.3633 103.119 41.53C103.352 41.69 103.526 41.92 103.639 42.22C103.752 42.52 103.809 42.8833 103.809 43.31C103.809 43.73 103.752 44.0967 103.639 44.41C103.532 44.7167 103.362 44.9533 103.129 45.12C102.896 45.2867 102.599 45.37 102.239 45.37C101.879 45.37 101.582 45.2867 101.349 45.12C101.116 44.9533 100.942 44.7167 100.829 44.41ZM110.094 45.26V40.64H107.274C107.267 41.1867 107.21 41.7367 107.104 42.29C107.004 42.8367 106.85 43.3633 106.644 43.87C106.444 44.37 106.19 44.8333 105.884 45.26H105.454V47.86H106.294V46H110.024V47.86H110.874V45.26H110.094ZM107.844 42.74C107.957 42.2533 108.027 41.7833 108.054 41.33H109.244V45.26H106.794C107.027 44.94 107.23 44.56 107.404 44.12C107.584 43.68 107.73 43.22 107.844 42.74ZM112.744 44.17C112.751 44.0567 112.754 43.97 112.754 43.91V40.64H111.924V46H113.014L115.864 41.52C115.858 41.6067 115.851 41.7367 115.844 41.91C115.838 42.0767 115.831 42.2467 115.824 42.42V42.84V46H116.644V40.64H115.564L112.694 45.13C112.701 45.0633 112.708 44.9767 112.714 44.87C112.721 44.7567 112.728 44.64 112.734 44.52C112.741 44.3933 112.744 44.2767 112.744 44.17ZM123.698 42.77C123.898 42.5833 123.998 42.3233 123.998 41.99C123.998 41.65 123.908 41.3833 123.728 41.19C123.555 40.99 123.315 40.85 123.008 40.77C122.708 40.6833 122.368 40.64 121.988 40.64H119.688V46H121.998C122.385 46 122.715 45.9633 122.988 45.89C123.261 45.81 123.485 45.7 123.658 45.56C123.831 45.42 123.958 45.2533 124.038 45.06C124.125 44.8667 124.168 44.6567 124.168 44.43C124.168 44.03 124.045 43.7367 123.798 43.55C123.551 43.3567 123.261 43.2367 122.928 43.19V43.15C123.241 43.0833 123.498 42.9567 123.698 42.77ZM122.908 43.77C123.141 43.9033 123.258 44.1233 123.258 44.43C123.258 44.7433 123.141 44.9667 122.908 45.1C122.675 45.2267 122.338 45.29 121.898 45.29H120.568V43.57H121.878C122.331 43.57 122.675 43.6367 122.908 43.77ZM122.828 41.55C123.015 41.6633 123.108 41.8467 123.108 42.1C123.108 42.3533 122.995 42.54 122.768 42.66C122.541 42.78 122.211 42.84 121.778 42.84H120.568V41.37H121.938C122.351 41.37 122.648 41.43 122.828 41.55ZM129.43 45.26V40.64H126.61C126.603 41.1867 126.546 41.7367 126.44 42.29C126.34 42.8367 126.186 43.3633 125.98 43.87C125.78 44.37 125.526 44.8333 125.22 45.26H124.79V47.86H125.63V46H129.36V47.86H130.21V45.26H129.43ZM127.18 42.74C127.293 42.2533 127.363 41.7833 127.39 41.33H128.58V45.26H126.13C126.363 44.94 126.566 44.56 126.74 44.12C126.92 43.68 127.066 43.22 127.18 42.74ZM135.74 44.5C135.86 44.1533 135.92 43.7567 135.92 43.31C135.92 42.7167 135.813 42.2167 135.6 41.81C135.393 41.3967 135.103 41.0833 134.73 40.87C134.363 40.65 133.937 40.54 133.45 40.54C132.937 40.54 132.493 40.65 132.12 40.87C131.747 41.0833 131.46 41.3967 131.26 41.81C131.06 42.2167 130.96 42.7167 130.96 43.31C130.96 43.7567 131.02 44.1533 131.14 44.5C131.267 44.84 131.44 45.13 131.66 45.37C131.88 45.61 132.14 45.7933 132.44 45.92C132.74 46.04 133.067 46.1 133.42 46.1C133.8 46.1 134.143 46.04 134.45 45.92C134.763 45.7933 135.027 45.61 135.24 45.37C135.46 45.13 135.627 44.84 135.74 44.5ZM132.03 44.41C131.923 44.0967 131.87 43.73 131.87 43.31C131.87 42.6767 131.993 42.18 132.24 41.82C132.487 41.46 132.883 41.28 133.43 41.28C133.797 41.28 134.093 41.3633 134.32 41.53C134.553 41.69 134.727 41.92 134.84 42.22C134.953 42.52 135.01 42.8833 135.01 43.31C135.01 43.73 134.953 44.0967 134.84 44.41C134.733 44.7167 134.563 44.9533 134.33 45.12C134.097 45.2867 133.8 45.37 133.44 45.37C133.08 45.37 132.783 45.2867 132.55 45.12C132.317 44.9533 132.143 44.7167 132.03 44.41ZM136.54 40.64L138.39 43.26L136.45 46H137.44L138.92 43.86L140.38 46H141.38L139.43 43.26L141.28 40.64H140.29L138.92 42.66L137.54 40.64H136.54ZM143.292 42.87V40.64H142.413V46H143.292V43.61H146.202V46H147.083V40.64H146.202V42.87H143.292ZM153.26 44.5C153.38 44.1533 153.44 43.7567 153.44 43.31C153.44 42.7167 153.333 42.2167 153.12 41.81C152.913 41.3967 152.623 41.0833 152.25 40.87C151.883 40.65 151.456 40.54 150.97 40.54C150.456 40.54 150.013 40.65 149.64 40.87C149.266 41.0833 148.98 41.3967 148.78 41.81C148.58 42.2167 148.48 42.7167 148.48 43.31C148.48 43.7567 148.54 44.1533 148.66 44.5C148.786 44.84 148.96 45.13 149.18 45.37C149.4 45.61 149.66 45.7933 149.96 45.92C150.26 46.04 150.586 46.1 150.94 46.1C151.32 46.1 151.663 46.04 151.97 45.92C152.283 45.7933 152.546 45.61 152.76 45.37C152.98 45.13 153.146 44.84 153.26 44.5ZM149.55 44.41C149.443 44.0967 149.39 43.73 149.39 43.31C149.39 42.6767 149.513 42.18 149.76 41.82C150.006 41.46 150.403 41.28 150.95 41.28C151.316 41.28 151.613 41.3633 151.84 41.53C152.073 41.69 152.246 41.92 152.36 42.22C152.473 42.52 152.53 42.8833 152.53 43.31C152.53 43.73 152.473 44.0967 152.36 44.41C152.253 44.7167 152.083 44.9533 151.85 45.12C151.616 45.2867 151.32 45.37 150.96 45.37C150.6 45.37 150.303 45.2867 150.07 45.12C149.836 44.9533 149.663 44.7167 149.55 44.41ZM158.844 42.77C159.044 42.5833 159.144 42.3233 159.144 41.99C159.144 41.65 159.054 41.3833 158.874 41.19C158.701 40.99 158.461 40.85 158.154 40.77C157.854 40.6833 157.514 40.64 157.134 40.64H154.834V46H157.144C157.531 46 157.861 45.9633 158.134 45.89C158.408 45.81 158.631 45.7 158.804 45.56C158.978 45.42 159.104 45.2533 159.184 45.06C159.271 44.8667 159.314 44.6567 159.314 44.43C159.314 44.03 159.191 43.7367 158.944 43.55C158.698 43.3567 158.408 43.2367 158.074 43.19V43.15C158.388 43.0833 158.644 42.9567 158.844 42.77ZM158.054 43.77C158.288 43.9033 158.404 44.1233 158.404 44.43C158.404 44.7433 158.288 44.9667 158.054 45.1C157.821 45.2267 157.484 45.29 157.044 45.29H155.714V43.57H157.024C157.478 43.57 157.821 43.6367 158.054 43.77ZM157.974 41.55C158.161 41.6633 158.254 41.8467 158.254 42.1C158.254 42.3533 158.141 42.54 157.914 42.66C157.688 42.78 157.358 42.84 156.924 42.84H155.714V41.37H157.084C157.498 41.37 157.794 41.43 157.974 41.55ZM163.846 40.84C163.519 40.64 163.126 40.54 162.666 40.54C162.193 40.54 161.776 40.6533 161.416 40.88C161.063 41.1067 160.786 41.43 160.586 41.85C160.393 42.27 160.296 42.7733 160.296 43.36C160.296 43.9533 160.403 44.4567 160.616 44.87C160.836 45.2767 161.139 45.5833 161.526 45.79C161.919 45.9967 162.369 46.1 162.876 46.1C163.243 46.1 163.559 46.07 163.826 46.01C164.093 45.9567 164.363 45.87 164.636 45.75V44.98C164.356 45.1 164.083 45.1933 163.816 45.26C163.556 45.32 163.256 45.35 162.916 45.35C162.383 45.35 161.966 45.1933 161.666 44.88C161.373 44.56 161.219 44.0967 161.206 43.49H164.876V42.96C164.876 42.4733 164.786 42.05 164.606 41.69C164.433 41.3233 164.179 41.04 163.846 40.84ZM161.656 41.67C161.903 41.3967 162.236 41.26 162.656 41.26C162.956 41.26 163.199 41.3267 163.386 41.46C163.579 41.5867 163.723 41.7633 163.816 41.99C163.909 42.2167 163.956 42.4833 163.956 42.79H161.226C161.273 42.31 161.416 41.9367 161.656 41.67ZM167.121 42.87V40.64H166.241V46H167.121V43.61H170.031V46H170.911V40.64H170.031V42.87H167.121ZM173.428 44.17C173.434 44.0567 173.438 43.97 173.438 43.91V40.64H172.608V46H173.698L176.548 41.52C176.541 41.6067 176.534 41.7367 176.528 41.91L176.518 42.165L176.508 42.42V42.84V46H177.328V40.64H176.248L173.378 45.13C173.384 45.0633 173.391 44.9767 173.398 44.87L173.408 44.7005L173.418 44.52C173.424 44.3933 173.428 44.2767 173.428 44.17ZM182.284 40.84C181.957 40.64 181.564 40.54 181.104 40.54C180.63 40.54 180.214 40.6533 179.854 40.88C179.5 41.1067 179.224 41.43 179.024 41.85C178.83 42.27 178.734 42.7733 178.734 43.36C178.734 43.9533 178.84 44.4567 179.054 44.87C179.274 45.2767 179.577 45.5833 179.964 45.79C180.357 45.9967 180.807 46.1 181.314 46.1C181.68 46.1 181.997 46.07 182.264 46.01C182.53 45.9567 182.8 45.87 183.074 45.75V44.98C182.794 45.1 182.52 45.1933 182.254 45.26C181.994 45.32 181.694 45.35 181.354 45.35C180.82 45.35 180.404 45.1933 180.104 44.88C179.81 44.56 179.657 44.0967 179.644 43.49H183.314V42.96C183.314 42.4733 183.224 42.05 183.044 41.69C182.87 41.3233 182.617 41.04 182.284 40.84ZM180.094 41.67C180.34 41.3967 180.674 41.26 181.094 41.26C181.394 41.26 181.637 41.3267 181.824 41.46C182.017 41.5867 182.16 41.7633 182.254 41.99C182.347 42.2167 182.394 42.4833 182.394 42.79H179.664C179.71 42.31 179.854 41.9367 180.094 41.67ZM95 36H16V35H95V36ZM105 36H184V35H105V36Z" fill="white"/>
</svg>
